PathFileType	4	(X/Y/Z)	/Users/itak/Documents/Research/Walk-IL/dataset/trc/00164_00008.trc
DataRate	CameraRate	NumFrames	NumMarkers	Units	OrigDataRate	OrigDataStartFrame	OrigNumFrames
100.000000	100.000000	4	53	mm	100.000000	532	608
Frame#	Time	RPSI			LPSI			L3			STRN			T10			C7			CLAV			RBAK			LBAK			LSHO			LUPA			LAEL			LAOL			LWTS			LWPS			LFRA			LIFD			LHPS			LHTS			RSHO			RUPA			RAEL			RAOL			RWTS			RWPS			RFRA			RIFD			RHTS			RHPS			RBHD			LFHD			RFHD			LBHD			LHIP			RHIP			RASI			LASI			LKNE			LTHI			LANK			LTIP			LTOE			LMT1			LMT5			LHEE			RKNE			RTHI			RANK			RTIP			RTOE			RMT1			RMT5			RHEE			
		X1	Y1	Z1	X2	Y2	Z2	X3	Y3	Z3	X4	Y4	Z4	X5	Y5	Z5	X6	Y6	Z6	X7	Y7	Z7	X8	Y8	Z8	X9	Y9	Z9	X10	Y10	Z10	X11	Y11	Z11	X12	Y12	Z12	X13	Y13	Z13	X14	Y14	Z14	X15	Y15	Z15	X16	Y16	Z16	X17	Y17	Z17	X18	Y18	Z18	X19	Y19	Z19	X20	Y20	Z20	X21	Y21	Z21	X22	Y22	Z22	X23	Y23	Z23	X24	Y24	Z24	X25	Y25	Z25	X26	Y26	Z26	X27	Y27	Z27	X28	Y28	Z28	X29	Y29	Z29	X30	Y30	Z30	X31	Y31	Z31	X32	Y32	Z32	X33	Y33	Z33	X34	Y34	Z34	X35	Y35	Z35	X36	Y36	Z36	X37	Y37	Z37	X38	Y38	Z38	X39	Y39	Z39	X40	Y40	Z40	X41	Y41	Z41	X42	Y42	Z42	X43	Y43	Z43	X44	Y44	Z44	X45	Y45	Z45	X46	Y46	Z46	X47	Y47	Z47	X48	Y48	Z48	X49	Y49	Z49	X50	Y50	Z50	X51	Y51	Z51	X52	Y52	Z52	X53	Y53	Z53	

533	5.32	838.6856079101562	1059.084716796875	14.67148113250732	842.3360595703125	1057.816772460938	-110.0406265258789	840.7325439453125	1093.473876953125	-45.67277908325195	1083.029052734375	1313.079467773438	-44.17254257202148	795.5755615234375	1243.311767578125	-53.73007583618164	839.3617553710938	1519.032348632812	-60.68087768554688	1047.233642578125	1424.389038085938	-52.11019515991211	781.7514038085938	1335.800415039062	42.43613052368164	837.3192749023438	1493.745971679688	-161.3133697509766	918.0157470703125	1486.327880859375	-237.1969604492188	901.196533203125	1352.90380859375	-313.6018371582031	942.056884765625	1137.82470703125	-334.6324157714844	884.0459594726562	1116.878173828125	-270.1073913574219	1068.142211914062	917.7289428710938	-289.6391296386719	996.736328125	889.7391357421875	-343.4230651855469	968.5978393554688	1029.72705078125	-347.9473571777344	1097.523559570312	734.7208862304688	-267.6903991699219	1023.7919921875	822.1619873046875	-337.3023071289062	1089.672973632812	842.1749877929688	-309.1412963867188	899.1945190429688	1495.999633789062	122.9662933349609	877.9838256835938	1428.024780273438	190.0853881835938	861.7897338867188	1141.34619140625	237.1942596435547	868.275634765625	1132.549072265625	139.9165802001953	988.7735595703125	907.56689453125	233.2623596191406	911.2194213867188	896.862548828125	274.4125671386719	883.4955444335938	1071.615356445312	258.592529296875	993.0200805664062	717.2059326171875	215.0762176513672	1007.209899902344	811.5819702148438	243.8271789550781	933.1036987304688	811.870361328125	273.7269287109375	918.4808349609375	1704.17919921875	19.52840995788574	1061.66650390625	1713.083251953125	-143.2104187011719	1087.328735351562	1720.824829101562	-16.75967597961426	883.9915771484375	1704.931884765625	-113.9444808959961	952.3101806640625	995.7164916992188	-226.5577697753906	992.689208984375	1020.716247558594	144.7668762207031	1071.603393554688	1047.68017578125	87.37102508544922	1068.882446289062	1037.656982421875	-172.6649322509766	953.1041870117188	499.9342651367188	-193.3916625976562	960.5756225585938	641.017822265625	-221.3390960693359	831.9754028320312	43.76173400878906	-199.0060882568359	898.4800415039062	278.2951354980469	-208.0944366455078	1048.227172851562	36.8801155090332	-180.2864837646484	1003.232055664062	38.90409469604492	-129.7465667724609	936.757568359375	30.98819160461426	-240.4631652832031	783.07275390625	48.77521514892578	-130.0746459960938	976.4554443359375	518.7025146484375	121.2552719116211	1037.415893554688	785.7322387695312	150.226318359375	854.2401733398438	40.19887542724609	128.8935546875	976.789794921875	399.6305541992188	100.9263687133789	1072.940063476562	38.27938461303711	75.24845886230469	1013.988891601562	38.75675582885742	34.77912139892578	966.3955688476562	32.60972213745117	153.9512023925781	795.9910278320312	45.39323043823242	68.57108306884766	
534	5.33	838.4832153320312	1060.09765625	14.30836963653564	842.5084228515625	1058.759521484375	-110.3958435058594	840.7512817382812	1094.532592773438	-46.02357482910156	1083.341430664062	1313.777587890625	-43.83330535888672	795.900146484375	1244.41552734375	-54.39784622192383	840.1318359375	1520.012573242188	-61.48142242431641	1047.740112304688	1425.131958007812	-52.04367065429688	781.8035278320312	1337.088500976562	41.65608215332031	838.3984985351562	1494.638427734375	-162.0344696044922	919.2930297851562	1487.123901367188	-237.6989288330078	902.2164916992188	1353.578247070312	-313.9459533691406	941.738525390625	1138.26953125	-333.80322265625	883.8200073242188	1117.898071289062	-268.9877014160156	1065.188354492188	916.5464477539062	-289.3931884765625	993.1221923828125	889.6307373046875	-342.8700561523438	966.9625244140625	1030.021728515625	-347.1805725097656	1091.439208984375	732.535400390625	-267.491455078125	1019.165954589844	821.678955078125	-336.923095703125	1085.444091796875	840.5933837890625	-309.0046081542969	899.151611328125	1497.256958007812	122.2992858886719	877.74462890625	1429.432373046875	189.5299682617188	861.8699340820312	1142.847290039062	237.5645141601562	868.5740356445312	1133.767211914062	140.3896179199219	990.1156616210938	909.6844482421875	234.1401672363281	912.6682739257812	898.6157836914062	275.3312683105469	883.8831787109375	1073.183227539062	259.1700134277344	995.8494262695312	719.414306640625	216.5755004882812	1009.163391113281	813.8663940429688	244.9687194824219	935.025390625	813.76953125	274.8632202148438	919.5873413085938	1705.025024414062	19.03430557250977	1063.3603515625	1713.572631835938	-143.2087554931641	1088.611328125	1721.131103515625	-16.67116928100586	885.56689453125	1706.046752929688	-114.5441284179688	952.5991821289062	996.5894165039062	-226.4693908691406	991.5904541015625	1021.509155273438	145.0522918701172	1070.750122070312	1048.51171875	88.03018188476562	1069.307250976562	1038.402709960938	-171.9406127929688	955.3790893554688	500.7257995605469	-193.8611450195312	962.2548217773438	641.6653442382812	-221.6637573242188	832.7686157226562	44.61206436157227	-201.6758728027344	900.3399047851562	278.823486328125	-209.3111114501953	1048.410766601562	36.97257995605469	-179.5066833496094	1002.720520019531	38.89389801025391	-129.8152160644531	938.2264404296875	31.48368263244629	-241.2204437255859	782.4713134765625	49.70816802978516	-133.7150573730469	976.6712036132812	519.39453125	121.7003784179688	1036.771240234375	786.4854736328125	150.8011627197266	854.4786376953125	40.63572692871094	129.4691619873047	977.0925903320312	400.1589965820312	101.3931350708008	1072.89501953125	38.27919006347656	75.20516204833984	1013.908569335938	38.90612030029297	34.99298858642578	966.6390380859375	32.55805206298828	154.2028198242188	796.0830688476562	46.12669372558594	69.32929992675781	
535	5.34	838.20068359375	1061.080810546875	13.96175670623779	842.6107788085938	1059.673461914062	-110.7050476074219	840.6824951171875	1095.566162109375	-46.32231140136719	1083.597412109375	1314.435546875	-43.44261932373047	796.18212890625	1245.507080078125	-55.02915191650391	840.8606567382812	1520.966796875	-62.27053070068359	1048.200073242188	1425.844848632812	-51.92545700073242	781.7982177734375	1338.365356445312	40.90459442138672	839.464599609375	1495.510009765625	-162.73095703125	920.5570068359375	1487.917724609375	-238.1701812744141	903.2178344726562	1354.289672851562	-314.3113098144531	941.3208618164062	1138.740234375	-332.9797058105469	883.507568359375	1118.960083007812	-267.8775634765625	1062.209350585938	915.4756469726562	-289.1266784667969	989.4824829101562	889.5968627929688	-342.2523803710938	965.2532348632812	1030.3505859375	-346.39111328125	1085.4052734375	730.5234375	-267.1596984863281	1014.530151367188	821.2774047851562	-336.4420471191406	1081.178466796875	839.0847778320312	-308.8081970214844	899.07666015625	1498.51318359375	121.6476211547852	877.4374389648438	1430.860717773438	188.9894256591797	861.894775390625	1144.341552734375	237.9062347412109	868.8463745117188	1135.002319335938	140.8250885009766	991.5791625976562	911.8972778320312	235.0143127441406	914.1986694335938	900.3765869140625	276.1676025390625	884.257568359375	1074.748901367188	259.7067565917969	998.9130249023438	721.71533203125	217.9980926513672	1011.329040527344	816.2730712890625	246.1096954345703	937.1365356445312	815.7047729492188	275.9221801757812	920.5885620117188	1705.8388671875	18.52091217041016	1065.007934570312	1714.041625976562	-143.1716918945312	1089.798217773438	1721.44091796875	-16.54045486450195	887.095458984375	1707.106201171875	-115.1781768798828	952.7266235351562	997.4635009765625	-226.3408050537109	990.3528442382812	1022.227478027344	145.3459777832031	1069.805541992188	1049.291137695312	88.72220611572266	1069.678466796875	1039.169067382812	-171.2092437744141	957.9103393554688	501.3949584960938	-194.3137817382812	964.1817016601562	642.2615356445312	-221.9641265869141	833.6676025390625	45.41281127929688	-204.6156158447266	902.3948364257812	279.2789306640625	-210.6565246582031	1048.6533203125	37.06695556640625	-178.6772766113281	1002.175598144531	38.88776779174805	-129.9135284423828	939.8193359375	31.95191383361816	-242.0863952636719	781.900634765625	50.59291458129883	-137.6813354492188	976.9110717773438	520.0120239257812	122.1132202148438	1036.066284179688	787.1689453125	151.3907012939453	854.70947265625	41.00105285644531	130.1365356445312	977.4183349609375	400.5906372070312	101.8257827758789	1072.83642578125	38.27168655395508	75.13356781005859	1013.789245605469	39.06637954711914	35.21740341186523	966.90185546875	32.46901321411133	154.4914093017578	796.1442260742188	46.72854232788086	70.17867279052734	
536	5.350000000000001	837.8269653320312	1061.994750976562	13.62711334228516	842.661865234375	1060.53515625	-110.9757308959961	840.5404052734375	1096.540771484375	-46.58089828491211	1083.803344726562	1315.015380859375	-43.00384521484375	796.4110717773438	1246.554931640625	-55.62794876098633	841.5587158203125	1521.86083984375	-63.04296112060547	1048.62451171875	1426.487182617188	-51.75905227661133	781.7413940429688	1339.59521484375	40.18531799316406	840.5267333984375	1496.328491210938	-163.4007263183594	921.8200073242188	1488.667602539062	-238.6099853515625	904.19970703125	1354.9912109375	-314.6886901855469	940.8119506835938	1139.193725585938	-332.1939086914062	883.103759765625	1120.014282226562	-266.8115539550781	1059.235961914062	914.4923706054688	-288.830322265625	985.8722534179688	889.5958251953125	-341.5841064453125	963.48583984375	1030.6630859375	-345.6005554199219	1079.51708984375	728.7120361328125	-266.6796875	1009.948791503906	820.915771484375	-335.8591003417969	1076.929809570312	837.638671875	-308.5286560058594	898.9815063476562	1499.726196289062	121.0151214599609	877.0748291015625	1432.2685546875	188.4692535400391	861.8526611328125	1145.785400390625	238.2390747070312	869.0549926757812	1136.211547851562	141.2356567382812	993.152099609375	914.1676635742188	235.8770446777344	915.8029174804688	902.1002197265625	276.9183044433594	884.6095581054688	1076.266845703125	260.2192993164062	1002.213684082031	724.0809326171875	219.3237457275391	1013.6962890625	818.7672729492188	247.2333984375	939.429931640625	817.6329345703125	276.8908996582031	921.4833374023438	1706.584838867188	17.99095916748047	1066.595092773438	1714.466430664062	-143.1024932861328	1090.879150390625	1721.740478515625	-16.37360382080078	888.5641479492188	1708.055297851562	-115.8423843383789	952.7028198242188	998.3159790039062	-226.1761932373047	988.9918823242188	1022.838439941406	145.6427459716797	1068.77392578125	1049.97900390625	89.43392181396484	1070.00244140625	1039.908203125	-170.4747619628906	960.60302734375	501.9114990234375	-194.7313842773438	966.3316040039062	642.7861328125	-222.1923217773438	834.65283203125	46.13506698608398	-207.7239379882812	904.5737915039062	279.646484375	-212.0843505859375	1048.956176757812	37.1567497253418	-177.8389129638672	1001.624694824219	38.8871955871582	-130.038330078125	941.4867553710938	32.37145233154297	-243.0343322753906	781.4170532226562	51.40726089477539	-141.8389739990234	977.1426391601562	520.5206909179688	122.4803924560547	1035.310302734375	787.7498779296875	151.9929504394531	854.914306640625	41.25199127197266	130.8601226806641	977.740478515625	400.9012756347656	102.2066192626953	1072.762329101562	38.25383758544922	75.03297424316406	1013.631469726562	39.23015594482422	35.43975067138672	967.1723022460938	32.35112762451172	154.8067932128906	796.17041015625	47.15105438232422	71.08979797363281	
